<mxfile host="app.diagrams.net" agent="Mozilla/5.0 (Windows NT 10.0; Win64; x64) AppleWebKit/537.36 (KHTML, like Gecko) Chrome/133.0.0.0 Safari/537.36 Edg/133.0.0.0" version="26.0.16">
  <diagram name="MVC" id="5Ff34Kl_tG2jA9bxVstU">
    <mxGraphModel dx="984" dy="547" grid="1" gridSize="10" guides="1" tooltips="1" connect="1" arrows="1" fold="1" page="1" pageScale="1" pageWidth="1169" pageHeight="827" math="0" shadow="0">
      <root>
        <mxCell id="0" />
        <mxCell id="1" parent="0" />
        <mxCell id="NrZY7Egy_WYuWPoSC2DG-14" style="edgeStyle=orthogonalEdgeStyle;rounded=0;orthogonalLoop=1;jettySize=auto;html=1;entryX=0;entryY=0.75;entryDx=0;entryDy=0;exitX=0.75;exitY=0;exitDx=0;exitDy=0;" edge="1" parent="1" source="NrZY7Egy_WYuWPoSC2DG-2" target="NrZY7Egy_WYuWPoSC2DG-4">
          <mxGeometry relative="1" as="geometry" />
        </mxCell>
        <mxCell id="NrZY7Egy_WYuWPoSC2DG-2" value="&lt;div&gt;模型&lt;/div&gt;Model" style="rounded=1;whiteSpace=wrap;html=1;fillColor=#dae8fc;strokeColor=#6c8ebf;" vertex="1" parent="1">
          <mxGeometry x="80" y="360" width="120" height="60" as="geometry" />
        </mxCell>
        <mxCell id="NrZY7Egy_WYuWPoSC2DG-17" style="edgeStyle=orthogonalEdgeStyle;rounded=0;orthogonalLoop=1;jettySize=auto;html=1;entryX=1;entryY=0.75;entryDx=0;entryDy=0;exitX=0.25;exitY=0;exitDx=0;exitDy=0;" edge="1" parent="1" source="NrZY7Egy_WYuWPoSC2DG-3" target="NrZY7Egy_WYuWPoSC2DG-4">
          <mxGeometry relative="1" as="geometry" />
        </mxCell>
        <mxCell id="NrZY7Egy_WYuWPoSC2DG-3" value="&lt;div&gt;视图&lt;/div&gt;View" style="rounded=1;whiteSpace=wrap;html=1;fillColor=#dae8fc;strokeColor=#6c8ebf;" vertex="1" parent="1">
          <mxGeometry x="560" y="360" width="120" height="60" as="geometry" />
        </mxCell>
        <mxCell id="NrZY7Egy_WYuWPoSC2DG-8" style="edgeStyle=orthogonalEdgeStyle;rounded=0;orthogonalLoop=1;jettySize=auto;html=1;exitX=0.75;exitY=1;exitDx=0;exitDy=0;" edge="1" parent="1" source="NrZY7Egy_WYuWPoSC2DG-4">
          <mxGeometry relative="1" as="geometry">
            <mxPoint x="410" y="440" as="targetPoint" />
          </mxGeometry>
        </mxCell>
        <mxCell id="NrZY7Egy_WYuWPoSC2DG-16" style="edgeStyle=orthogonalEdgeStyle;rounded=0;orthogonalLoop=1;jettySize=auto;html=1;entryX=0.75;entryY=0;entryDx=0;entryDy=0;exitX=1;exitY=0.25;exitDx=0;exitDy=0;" edge="1" parent="1" source="NrZY7Egy_WYuWPoSC2DG-4" target="NrZY7Egy_WYuWPoSC2DG-3">
          <mxGeometry relative="1" as="geometry" />
        </mxCell>
        <mxCell id="NrZY7Egy_WYuWPoSC2DG-4" value="&lt;div&gt;控制器&lt;/div&gt;Controller" style="rounded=1;whiteSpace=wrap;html=1;fillColor=#dae8fc;strokeColor=#6c8ebf;" vertex="1" parent="1">
          <mxGeometry x="320" y="260" width="120" height="60" as="geometry" />
        </mxCell>
        <mxCell id="NrZY7Egy_WYuWPoSC2DG-7" style="edgeStyle=orthogonalEdgeStyle;rounded=0;orthogonalLoop=1;jettySize=auto;html=1;entryX=0.25;entryY=1;entryDx=0;entryDy=0;" edge="1" parent="1" target="NrZY7Egy_WYuWPoSC2DG-4">
          <mxGeometry relative="1" as="geometry">
            <mxPoint x="350" y="440" as="sourcePoint" />
          </mxGeometry>
        </mxCell>
        <mxCell id="NrZY7Egy_WYuWPoSC2DG-6" value="&lt;div&gt;用户&lt;/div&gt;User" style="shape=umlActor;verticalLabelPosition=bottom;verticalAlign=top;html=1;outlineConnect=0;" vertex="1" parent="1">
          <mxGeometry x="365" y="480" width="30" height="60" as="geometry" />
        </mxCell>
        <mxCell id="NrZY7Egy_WYuWPoSC2DG-10" value="&lt;div&gt;请求&lt;/div&gt;Request" style="text;html=1;align=center;verticalAlign=middle;whiteSpace=wrap;rounded=0;" vertex="1" parent="1">
          <mxGeometry x="320" y="440" width="60" height="30" as="geometry" />
        </mxCell>
        <mxCell id="NrZY7Egy_WYuWPoSC2DG-11" value="&lt;div&gt;回应&lt;/div&gt;Respond" style="text;html=1;align=center;verticalAlign=middle;whiteSpace=wrap;rounded=0;" vertex="1" parent="1">
          <mxGeometry x="380" y="440" width="60" height="30" as="geometry" />
        </mxCell>
        <mxCell id="NrZY7Egy_WYuWPoSC2DG-12" style="edgeStyle=orthogonalEdgeStyle;rounded=0;orthogonalLoop=1;jettySize=auto;html=1;entryX=0.221;entryY=0.034;entryDx=0;entryDy=0;entryPerimeter=0;exitX=0;exitY=0.25;exitDx=0;exitDy=0;" edge="1" parent="1" source="NrZY7Egy_WYuWPoSC2DG-4" target="NrZY7Egy_WYuWPoSC2DG-2">
          <mxGeometry relative="1" as="geometry" />
        </mxCell>
        <mxCell id="NrZY7Egy_WYuWPoSC2DG-13" value="&lt;div&gt;请求数据&lt;/div&gt;Request Data" style="text;html=1;align=left;verticalAlign=middle;whiteSpace=wrap;rounded=0;" vertex="1" parent="1">
          <mxGeometry x="180" y="240" width="80" height="30" as="geometry" />
        </mxCell>
        <mxCell id="NrZY7Egy_WYuWPoSC2DG-15" value="&lt;div&gt;返回数据&lt;/div&gt;Return Data" style="text;html=1;align=left;verticalAlign=middle;whiteSpace=wrap;rounded=0;" vertex="1" parent="1">
          <mxGeometry x="180" y="310" width="80" height="30" as="geometry" />
        </mxCell>
        <mxCell id="NrZY7Egy_WYuWPoSC2DG-18" value="&lt;div&gt;&lt;span style=&quot;color: rgba(0, 0, 0, 0.95); font-family: Inter, -apple-system, BlinkMacSystemFont, &amp;quot;Segoe UI&amp;quot;, &amp;quot;SF Pro SC&amp;quot;, &amp;quot;SF Pro Display&amp;quot;, &amp;quot;SF Pro Icons&amp;quot;, &amp;quot;PingFang SC&amp;quot;, &amp;quot;Hiragino Sans GB&amp;quot;, &amp;quot;Microsoft YaHei&amp;quot;, &amp;quot;Helvetica Neue&amp;quot;, Helvetica, Arial, sans-serif; font-size: 13px; text-align: start;&quot;&gt;渲染结果&lt;/span&gt;&lt;/div&gt;Rendered Result" style="text;html=1;align=right;verticalAlign=middle;whiteSpace=wrap;rounded=0;" vertex="1" parent="1">
          <mxGeometry x="480" y="310" width="100" height="30" as="geometry" />
        </mxCell>
        <mxCell id="NrZY7Egy_WYuWPoSC2DG-19" value="&lt;div&gt;发送数据&lt;/div&gt;Send Data" style="text;html=1;align=right;verticalAlign=middle;whiteSpace=wrap;rounded=0;" vertex="1" parent="1">
          <mxGeometry x="500" y="240" width="80" height="30" as="geometry" />
        </mxCell>
      </root>
    </mxGraphModel>
  </diagram>
</mxfile>
